<svg version="1.1" id="Layer_1" xmlns="http://www.w3.org/2000/svg" xmlns:xlink="http://www.w3.org/1999/xlink" x="0px" y="0px"
	 width="100%" viewBox="0 0 512 512" enable-background="new 0 0 512 512" xml:space="preserve">
<path fill="#DEC1CD" opacity="1.000000" stroke="none" 
	d="
M198.999985,513.000000 
	C166.645767,513.000000 134.291550,513.000000 101.797462,512.689575 
	C101.014305,511.927246 100.429024,511.223206 99.719307,511.059845 
	C72.518806,504.799255 56.324181,482.102020 56.113400,456.035583 
	C55.719101,407.274506 56.000000,358.507996 56.000000,309.743744 
	C56.000000,307.957458 56.000000,306.171204 56.000000,304.531219 
	C51.683968,303.983948 47.831764,303.268646 43.950993,303.041595 
	C24.025774,301.875702 7.553714,286.569366 2.935426,267.878876 
	C2.752458,267.138397 1.665666,266.621216 1.000002,266.000000 
	C1.000000,259.645599 1.000000,253.291214 1.309359,246.797119 
	C2.057533,246.180069 2.790977,245.757507 2.891458,245.217224 
	C4.713377,235.420593 9.894884,227.582260 16.818253,220.662323 
	C85.041054,152.473068 153.190933,84.210648 221.551590,16.159924 
	C226.416824,11.316757 232.807220,8.015383 238.423294,3.907994 
	C239.444763,3.160927 240.149216,1.980421 241.000000,1.000005 
	C252.020889,1.000000 263.041779,1.000000 274.208130,1.276096 
	C275.380096,2.320652 276.393829,3.106862 277.435242,3.854603 
	C283.218994,8.007460 289.710876,11.446267 294.691742,16.404028 
	C362.566650,83.963852 430.282867,151.683548 497.844788,219.556381 
	C502.686493,224.420410 505.986267,230.809692 510.092194,236.424561 
	C510.838928,237.445755 512.019653,238.149628 513.000000,239.000000 
	C513.000000,250.020889 513.000000,261.041779 512.723877,272.208130 
	C511.414307,273.971497 510.163055,275.491333 509.382812,277.223328 
	C504.521973,288.014465 496.465302,295.747894 485.511230,299.588348 
	C477.517395,302.390991 468.891235,303.389832 460.000000,305.310974 
	C460.000000,306.233582 460.000000,308.034332 460.000000,309.835114 
	C460.000000,357.163544 460.072784,404.492249 459.911285,451.820129 
	C459.890259,457.987579 459.326538,464.311859 457.875763,470.287079 
	C452.789032,491.237610 436.612091,506.856354 415.890320,511.070740 
	C415.159637,511.219360 414.625671,512.335022 414.000000,513.000000 
	C381.979095,513.000000 349.958221,513.000000 317.793030,512.721497 
	C309.076782,508.276855 306.709076,501.401611 306.823090,492.067230 
	C307.260223,456.278076 307.033112,420.480316 306.956085,384.685974 
	C306.946960,380.445740 306.525726,376.181488 305.965942,371.972198 
	C304.516754,361.075195 294.137390,352.055328 283.044434,352.015533 
	C266.396027,351.955811 249.745010,351.856567 233.100525,352.118225 
	C229.676926,352.172058 226.012100,353.196503 222.915970,354.709686 
	C213.590698,359.267303 209.140030,367.404297 209.086349,377.443420 
	C208.875412,416.899506 208.904434,456.357819 209.088470,495.814148 
	C209.121429,502.883484 206.415451,507.686218 200.354156,510.947449 
	C199.718628,511.289398 199.442734,512.299744 198.999985,513.000000 
M255.804169,31.000252 
	C250.900848,31.241243 247.421631,34.060856 244.147095,37.336372 
	C175.822632,105.681007 107.487350,174.014847 39.154152,242.350739 
	C38.683174,242.821762 38.213787,243.294388 37.739815,243.762375 
	C29.103020,252.290314 31.810406,270.337463 46.180042,271.941772 
	C54.679482,272.890686 63.305458,272.812347 71.878654,272.965393 
	C80.943962,273.127197 86.997795,278.974457 86.998329,287.935089 
	C87.001663,343.253052 86.900307,398.571533 87.165092,453.888214 
	C87.189659,459.021057 88.612488,464.618805 90.979782,469.172089 
	C96.146568,479.109894 105.888084,481.780121 116.200150,481.922943 
	C135.524399,482.190582 154.855011,482.006134 174.182953,481.985748 
	C175.436493,481.984436 176.689819,481.779297 178.000000,481.664001 
	C178.000000,448.761841 177.955887,416.272797 178.044601,383.784088 
	C178.058929,378.533295 178.394135,373.250580 179.041168,368.039764 
	C182.317780,341.651947 205.608704,321.324188 231.732513,321.037048 
	C249.392136,320.842896 267.058441,320.805328 284.716431,321.063690 
	C298.029633,321.258514 309.755219,326.197235 319.531067,335.136688 
	C332.127380,346.655396 337.841919,361.444641 337.942780,378.282440 
	C338.138367,410.938873 338.000000,443.597321 338.000000,476.254913 
	C338.000000,478.039917 338.000000,479.824951 338.000000,481.639771 
	C338.887024,481.812286 339.350555,481.980927 339.814240,481.981293 
	C360.141907,481.996765 380.470428,482.091949 400.796509,481.912598 
	C404.457367,481.880280 408.278870,481.195038 411.732941,479.978455 
	C424.185760,475.592499 428.938232,465.803528 428.959351,453.391602 
	C429.053131,398.240417 428.998352,343.088959 429.001648,287.937622 
	C429.002197,278.975616 435.052887,273.005463 444.119354,273.000732 
	C451.117401,272.997070 458.119507,273.146820 465.112274,272.954773 
	C470.970428,272.793854 476.303223,271.112061 479.984192,266.083313 
	C484.900940,259.366333 483.853363,249.215057 477.262878,242.643829 
	C408.592346,174.174408 340.049683,105.576683 271.509064,36.977066 
	C267.350067,32.814472 262.689911,30.354797 255.804169,31.000252 
z"/>
</svg>